<svg width="100%" height="100%" viewBox="0 0 35 33" fill="none" xmlns="http://www.w3.org/2000/svg">
  <path d="M32.9582 1L19.8241 10.7183L22.2356 5.13744L32.9582 1Z" fill="#E2761B" stroke="#E2761B" stroke-linecap="round" stroke-linejoin="round"/>
  <path d="M2.04179 1L15.0487 10.809L12.7644 5.13744L2.04179 1Z" fill="#E4761B" stroke="#E4761B" stroke-linecap="round" stroke-linejoin="round"/>
  <path d="M28.2858 23.717L24.7736 29.1109L32.2867 31.2399L34.4875 23.8408L28.2858 23.717Z" fill="#E4761B" stroke="#E4761B" stroke-linecap="round" stroke-linejoin="round"/>
  <path d="M0.543945 23.8408L2.7339 31.2399L10.247 29.1109L6.7347 23.717L0.543945 23.8408Z" fill="#E4761B" stroke="#E4761B" stroke-linecap="round" stroke-linejoin="round"/>
  <path d="M9.86138 14.7107L7.80078 17.8683L15.2447 18.2069L14.9851 10.2014L9.86138 14.7107Z" fill="#E4761B" stroke="#E4761B" stroke-linecap="round" stroke-linejoin="round"/>
  <path d="M25.1384 14.7107L19.9429 10.0877L19.8241 18.2069L27.2572 17.8683L25.1384 14.7107Z" fill="#E4761B" stroke="#E4761B" stroke-linecap="round" stroke-linejoin="round"/>
  <path d="M10.247 29.1109L14.7472 26.9327L10.9167 23.8899L10.247 29.1109Z" fill="#E4761B" stroke="#E4761B" stroke-linecap="round" stroke-linejoin="round"/>
  <path d="M20.2529 26.9327L24.7736 29.1109L24.0833 23.8899L20.2529 26.9327Z" fill="#E4761B" stroke="#E4761B" stroke-linecap="round" stroke-linejoin="round"/>
  <path d="M24.7736 29.1109L20.2529 26.9327L20.6012 29.8588L20.5607 31.1262L24.7736 29.1109Z" fill="#D7C1B3" stroke="#D7C1B3" stroke-linecap="round" stroke-linejoin="round"/>
  <path d="M10.247 29.1109L14.4599 31.1262L14.4293 29.8588L14.7472 26.9327L10.247 29.1109Z" fill="#D7C1B3" stroke="#D7C1B3" stroke-linecap="round" stroke-linejoin="round"/>
  <path d="M14.5308 22.0047L10.8359 20.8999L13.4754 19.7051L14.5308 22.0047Z" fill="#233447" stroke="#233447" stroke-linecap="round" stroke-linejoin="round"/>
  <path d="M20.4692 22.0047L21.5246 19.7051L24.1846 20.8999L20.4692 22.0047Z" fill="#233447" stroke="#233447" stroke-linecap="round" stroke-linejoin="round"/>
  <path d="M10.247 29.1109L10.9471 23.717L6.7347 23.8408L10.247 29.1109Z" fill="#CD6116" stroke="#CD6116" stroke-linecap="round" stroke-linejoin="round"/>
  <path d="M24.0529 23.717L24.7736 29.1109L28.2858 23.8408L24.0529 23.717Z" fill="#CD6116" stroke="#CD6116" stroke-linecap="round" stroke-linejoin="round"/>
  <path d="M27.2572 17.8683L19.8241 18.2069L20.4895 22.0047L21.5449 19.7051L24.2049 20.8999L27.2572 17.8683Z" fill="#CD6116" stroke="#CD6116" stroke-linecap="round" stroke-linejoin="round"/>
  <path d="M10.8359 20.8999L13.4959 19.7051L14.5308 22.0047L15.2447 18.2069L7.80078 17.8683L10.8359 20.8999Z" fill="#CD6116" stroke="#CD6116" stroke-linecap="round" stroke-linejoin="round"/>
  <path d="M7.80078 17.8683L10.9167 23.8899L10.8359 20.8999L7.80078 17.8683Z" fill="#E4751F" stroke="#E4751F" stroke-linecap="round" stroke-linejoin="round"/>
  <path d="M24.2049 20.8999L24.0833 23.8899L27.2572 17.8683L24.2049 20.8999Z" fill="#E4751F" stroke="#E4751F" stroke-linecap="round" stroke-linejoin="round"/>
  <path d="M15.2447 18.2069L14.5308 22.0047L15.4264 26.5141L15.5755 20.6723L15.2447 18.2069Z" fill="#E4751F" stroke="#E4751F" stroke-linecap="round" stroke-linejoin="round"/>
  <path d="M19.8241 18.2069L19.5037 20.6518L19.5934 26.5141L20.4895 22.0047L19.8241 18.2069Z" fill="#E4751F" stroke="#E4751F" stroke-linecap="round" stroke-linejoin="round"/>
  <path d="M20.4895 22.0047L19.5934 26.5141L20.2528 26.9327L24.0833 23.8899L24.2048 20.8999L20.4895 22.0047Z" fill="#F6851B" stroke="#F6851B" stroke-linecap="round" stroke-linejoin="round"/>
  <path d="M10.8359 20.8999L10.9167 23.8899L14.7471 26.9327L15.4065 26.5141L14.5308 22.0047L10.8359 20.8999Z" fill="#F6851B" stroke="#F6851B" stroke-linecap="round" stroke-linejoin="round"/>
  <path d="M20.5607 31.1262L20.6012 29.8588L20.2834 29.5818H14.7165L14.4293 29.8588L14.4599 31.1262L10.247 29.1109L11.6517 30.2685L14.6686 32.2837H20.3212L23.3686 30.2685L24.7735 29.1109L20.5607 31.1262Z" fill="#C0AD9E" stroke="#C0AD9E" stroke-linecap="round" stroke-linejoin="round"/>
  <path d="M20.2528 26.9327L19.5934 26.5141H15.4065L14.7471 26.9327L14.4292 29.8588L14.7165 29.5818H20.2834L20.6012 29.8588L20.2528 26.9327Z" fill="#161616" stroke="#161616" stroke-linecap="round" stroke-linejoin="round"/>
  <path d="M33.5982 11.3522L34.7119 6.11383L32.9582 1L20.2528 10.3798L25.1384 14.7107L32.0621 16.727L33.569 14.9732L32.9277 14.5141L33.9831 13.5856L33.1884 12.9834L34.2438 12.1982L33.5982 11.3522Z" fill="#763D16" stroke="#763D16" stroke-linecap="round" stroke-linejoin="round"/>
  <path d="M0.288086 6.11383L1.40184 11.3522L0.736273 12.1982L1.81166 12.9834L1.01686 13.5856L2.07225 14.5141L1.43096 14.9732L2.93783 16.727L9.86147 14.7107L14.7471 10.3798L2.04175 1L0.288086 6.11383Z" fill="#763D16" stroke="#763D16" stroke-linecap="round" stroke-linejoin="round"/>
  <path d="M32.0621 16.7271L25.1385 14.7107L27.2572 17.8684L24.0834 23.8899L28.2858 23.8408H34.4875L32.0621 16.7271Z" fill="#F6851B" stroke="#F6851B" stroke-linecap="round" stroke-linejoin="round"/>
  <path d="M9.86147 14.7107L2.93788 16.7271L0.543945 23.8408H6.7347L10.9168 23.8899L7.80083 17.8684L9.86147 14.7107Z" fill="#F6851B" stroke="#F6851B" stroke-linecap="round" stroke-linejoin="round"/>
  <path d="M19.8241 18.2069L20.2528 10.3798L22.266 5.13745H12.7644L14.7471 10.3798L15.2447 18.2069L15.396 20.6928L15.406 26.5141H19.5934L19.6134 20.6928L19.8241 18.2069Z" fill="#F6851B" stroke="#F6851B" stroke-linecap="round" stroke-linejoin="round"/>
</svg> 